<svg fill="none" height="61" viewBox="0 0 54 61" width="54" xmlns="http://www.w3.org/2000/svg"><path d="m4.52197 14.1828s4.08118-4.45789 20.22503-3.5796c16.1438.8782 20.6969 3.2225 20.6969 3.2225s5.8443 2.5097 6.2656 11.4836c.4495 9.5781-.2429 19.1105-2.6296 24.4831-2.3867 5.3727-6.3121 8.1782-9.7318 8.7545-4.1588.7014-8.6595-2.4408-12.2087-4.8141-3.5491-2.3733-16.9652-14.3618-16.9652-14.3618s-9.591997-7.965-9.618929-16.3789c0 0-.040264-5.6384 3.966699-8.8093z" fill="#abd4d2"/><g stroke="#000"><path d="m15 32.3449c0-2.9838 1.2462-5.7307 3.2113-7.6725l7.8127-7.6724 7.7647 7.6251c2.013 1.9891 3.2113 4.6887 3.2113 7.6724 0 6.0148-4.9368 10.893-11.024 10.893-6.0871 0-10.976-4.8782-10.976-10.8456z" fill="#fff" stroke-miterlimit="10"/><path clip-rule="evenodd" d="m26 1-18 16.5789v36.4211h18 18v-36.4211z" fill-rule="evenodd"/></g></svg>