<svg fill="none" height="51" viewBox="0 0 54 51" width="54" xmlns="http://www.w3.org/2000/svg"><path d="m8.00066 4.3861s-4.26165 4.28571-2.62742 20.3706c1.63424 16.0849 4.18943 20.523 4.18943 20.523s2.78093 5.7203 11.76473 5.7203c9.5887 0 19.0781-1.1387 24.3329-3.7747 5.2548-2.6359 7.8732-6.6885 8.2886-10.1315.5056-4.1871-2.8441-8.5355-5.3813-11.9695-2.5371-3.4339-15.1415-16.27317-15.1415-16.27317s-8.4059-9.208013-16.8118-8.8404092c0 0-5.6341.2241482-8.61364 4.3753792z" fill="#bdcd9b"/><g stroke="#000"><path d="m10.5 37h-9.5v-26h46v26h-10"/><path d="m33 31.2829h.8898l-.4627-.76-9-14.7829-.4271-.7015-.4271.7015-9 14.7829-.4627.76h.8898 2.3329l-2.7665 4.8159-.4303.749h.8639 5.6151v3.1522.5h.5 2.8849 2.8738.5v-.5-3.1522h5.6262.8639l-.4303-.749-2.7665-4.8159z" fill="#fff" stroke-miterlimit="10"/></g></svg>