<svg fill="none" height="51" viewBox="0 0 54 51" width="54" xmlns="http://www.w3.org/2000/svg"><path d="m7.00066 4.3861s-4.26165 4.28571-2.62742 20.3706c1.63424 16.0849 4.18943 20.523 4.18943 20.523s2.78093 5.7203 11.76473 5.7203c9.5887 0 19.0781-1.1387 24.3329-3.7747 5.2548-2.6359 7.8732-6.6885 8.2886-10.1315.5056-4.1871-2.8441-8.5355-5.3813-11.9695-2.5371-3.4339-15.1415-16.27317-15.1415-16.27317s-8.4059-9.208013-16.8118-8.8404092c0 0-5.63409.2241482-8.61364 4.3753792z" fill="#c5aacf"/><path d="m34.4215 23.1223c.1196.2007.2029.4209.2463.6504h.0365c.4673 0 .9201.1614 1.2816.4568.3616.2954.6095.7065.7018 1.1636h.04c.1323-.0002.2644.0126.3942.0382 2.0886-2.7467 4.2739-2.4419 5.299-2.0789.0851.0299.1618.0792.2243.144.0624.0649.1087.1435.1352.2294l.0139-.013s2.3201-2.1024 4.4453-2.4506.2532 2.8162.2532 2.8162l-.3837.62c1.3251-.6227 2.7508-1.005 4.2103-1.1289 1.516-.1198 1.6944.4342 1.6248.8519-.0399.2221-.1515.4252-.3177.5783-.8946.8441-5.326 4.9792-8.4293 7.0164 0 0-2.0887 1.1602-4.0128 1.4372-1.1627.6009-2.7414 1.2278-4.7917 1.6664-.5597.5451-1.3109.8502-2.093.8501h-2.918c-7.3668-.3473-12.7633-1.8505-15.7352-2.9247l-.1932-.0694-5.46527 5.9309c-8.816642-3.173-7.9194-9.1491-7.9194-9.1491l9.82437-6.6413s3.4245-2.4427 6.8499-2.4427c0 0 8.8323.1355 14.3297-1.2157 5.4975-1.3512 4.5071 1.8887 4.5071 1.8887s-.2245.8136-1.2183 1.3312c-.2611.1372-.5735.2857-.9443.4394" fill="#fff"/><path d="m30.0528 15.0334s-2.0355-5.96053-10.9766-6.80632c-.0798-.00527-.1589.017-.2241.06307s-.1126.11312-.1341.18991c-.0216.07679-.016.15865.0158.23181s.0879.13317.1588.16996c.8971.43197 1.7314.98318 2.4802 1.63857 1.241 1.1011 2.3436 3.6472 6.212 5.1651 0 0 2.468.6522 2.468 2.5556" fill="#fff"/><path d="m30.0527 15.0334s2.0356-5.96053 10.9767-6.80632c.0797-.00527.1589.017.2241.06307s.1126.11312.1341.18991.016.15865-.0158.23181-.0879.13317-.1588.16996c-.8975.43173-1.7321.98296-2.4811 1.63857-1.241 1.1011-2.3428 3.6472-6.212 5.1651 0 0-2.4672.6522-2.4672 2.5556" fill="#fff"/><g stroke="#000" stroke-miterlimit="10"><path d="m11.999 31.9528s6.7176 3.4692 18.3826 4.0171h2.9189c.4506-.0001.8953-.1017 1.3011-.2971.4058-.1955.7621-.4798 1.0425-.8318 1.556-1.9512 4.7638-6.1854 7.097-10.6757.0386-.0738.0609-.1549.0654-.238s-.0088-.1662-.0392-.2437c-.0303-.0775-.0769-.1476-.1367-.2056s-.1313-.1026-.2098-.1307c-1.0539-.3734-3.334-.6843-5.4739 2.3168l-3.4637 5.0027s-5.5949-5.1868-16.3931-5.4178"/><path d="m24.2091 24.1584c-.1189-.1338-.2312-.2611-.3368-.3821-1.1313-1.2887-2.7039-3.1027-6.1284-3.1027s-6.8498 2.4427-6.8498 2.4427l-9.82443 6.6413s-.898114 5.9761 7.9194 9.1491l5.41913-5.8745"/><path d="m17.7441 20.6735s8.8323.1354 14.3298-1.2157c5.4975-1.3512 4.5071 1.8887 4.5071 1.8887s-.2245.8136-1.2184 1.3312c-.261.1372-.5735.2857-.9442.4394"/><path d="m42.8072 23.6989s2.3071-2.0841 4.4323-2.4367c2.1252-.3525.2532 2.8162.2532 2.8162l-4.4287 7.1406c-.2079.3353-.4702.6338-.7763.8831-.9173.7468-3.0956 2.2031-6.8951 3.0167"/><path d="m47.1093 24.695c1.3251-.6227 2.7508-1.0049 4.2103-1.1288 1.516-.1199 1.6944.4342 1.6248.8518-.0399.2222-.1515.4253-.3177.5784-.8946.844-5.326 4.9792-8.4293 7.0164 0 0-2.0887 1.1601-4.0128 1.4371"/><path d="m37.1218 25.4279c-.1298-.0256-.2619-.0384-.3942-.0383h-.04c-.0923-.457-.3402-.8681-.7017-1.1635-.3616-.2954-.8144-.4568-1.2817-.4568h-.0365c-.0879-.4616-.3345-.8781-.6972-1.1777s-.8188-.4635-1.2896-.4635c-.3313-.0003-.6574.0811-.9495.237-.1782-.2835-.4259-.517-.7196-.6787-.2936-.1616-.6237-.246-.9591-.2452-.3363 0-.667.0856-.9608.2486-.2939.1631-.5413.3982-.7188.6831-.292-.1562-.6182-.2376-.9495-.237-.4708.0002-.9268.1642-1.2895.4637-.3626.2996-.6092.716-.6973 1.1775h-.0366c-.4672 0-.9201.1614-1.2816.4568s-.6094.7065-.7017 1.1636h-.04c-.4185-.0007-.8268.1289-1.1679.3708"/><path d="m30.0518 21.4367v-5.7121"/><path d="m30.0528 15.0334s-2.0355-5.96053-10.9766-6.80632c-.0798-.00527-.1589.017-.2241.06307s-.1126.11312-.1341.18991c-.0216.07679-.016.15865.0158.23181s.0879.13317.1588.16996c.8971.43197 1.7314.98318 2.4802 1.63857 1.241 1.1011 2.3436 3.6472 6.212 5.1651 0 0 2.468.6522 2.468 2.5556"/><path d="m30.0527 18.2411c0-1.9034 2.4672-2.5556 2.4672-2.5556 3.8692-1.5222 4.971-4.064 6.212-5.1651.749-.65561 1.5836-1.20684 2.4811-1.63857.0709-.03679.127-.0968.1588-.16996s.0373-.15502.0158-.23181-.0689-.14384-.1341-.18991-.1444-.06834-.2241-.06307c-8.9411.84579-10.9767 6.80632-10.9767 6.80632"/></g><path d="m30.0616 15.7245s-5.2669-6.01867-.3229-12.56531c.037-.04941.0851-.08953.1404-.11717s.1163-.04202.1781-.04202c.0619 0 .1228.01438.1781.04202s.1034.06776.1404.11717c4.944 6.54664-.3228 12.56531-.3228 12.56531" fill="#fff"/><path d="m30.0529 15.7245s5.2668-6.01867.3228-12.56531c-.037-.04941-.0851-.08953-.1404-.11717s-.1162-.04202-.1781-.04202c-.0618 0-.1228.01438-.1781.04202s-.1034.06776-.1404.11717c-4.944 6.54664.3229 12.56531.3229 12.56531" stroke="#000" stroke-miterlimit="10"/></svg>