<svg fill="none" height="60" viewBox="0 0 60 60" width="60" xmlns="http://www.w3.org/2000/svg"><path d="m7.52197 12.1828s4.08123-4.45789 20.22503-3.57963 20.6969 3.22253 20.6969 3.22253 5.8443 2.5097 6.2656 11.4836c.4495 9.5781-.2429 19.1105-2.6296 24.4831-2.3867 5.3727-6.3121 8.1782-9.7318 8.7545-4.1588.7014-8.6595-2.4408-12.2087-4.8141-3.5491-2.3733-16.9652-14.3618-16.9652-14.3618s-9.592-7.965-9.61893-16.3789c0 0-.04026-5.6384 3.9667-8.8093z" fill="#f7c665"/><g stroke="#000"><path d="m39.6771 37.4678c2.9354 0 5.3229-2.4601 5.3229-5.4849 0-2.8434-2.0939-5.1825-4.7945-5.4649.0195-.2016.0391-.3831.0391-.5847 0-2.4602-1.9374-4.4364-4.3053-4.4364-.6458 0-1.2524.1411-1.8199.4033-1.0372-2.8635-3.7182-4.9002-6.8689-4.9002-4.0705 0-7.3777 3.4079-7.3777 7.6023 0 .726.0978 1.4519.2935 2.1174-2.8767.1008-5.1663 2.5207-5.1663 5.485 0 3.0248 2.3875 5.485 5.3229 5.485z" fill="#fff" stroke-miterlimit="10"/><path d="m30 .707107h41v41h-41z" transform="matrix(.70710678 .70710678 -.70710678 .70710678 9.286797 -21.006097)"/></g></svg>