<svg fill="none" height="57" viewBox="0 0 57 57" width="57" xmlns="http://www.w3.org/2000/svg" xmlns:xlink="http://www.w3.org/1999/xlink"><clipPath id="a"><path d="m0 0h57v57h-57z"/></clipPath><g clip-path="url(#a)"><path d="m56.4314 18.4886s2.0406 5.689-6.2638 19.561c-8.3045 13.8719-12.5013 16.8066-12.5013 16.8066s-4.9453 3.9999-13.0803.1882c-8.6829-4.0683-16.79267-9.1257-20.43265-13.7422-3.639978-4.6165-4.291526-9.3972-3.206832-12.6911 1.318682-4.006 6.196962-6.5225 9.951382-8.5555 3.7544-2.0331 20.6156-8.3115 20.6156-8.3115s11.5186-4.77155 18.9744-.8721c0 0 5.0067 2.5934 5.9435 7.6166z" fill="#efde83"/><g stroke="#000"><g fill="#fff" stroke-miterlimit="10"><path d="m24.7817 23.3525c1.2317-.3042 1.8536-2.0756 1.389-3.9564-.4646-1.8809-1.8397-3.159-3.0714-2.8547-1.2317.3042-1.8536 2.0756-1.389 3.9564.4646 1.8809 1.8397 3.159 3.0714 2.8547z"/><path d="m20.6199 28.8162c1.143-.5507 1.3878-2.4122.5468-4.1576-.8411-1.7454-2.4494-2.7138-3.5925-2.1631-1.143.5508-1.3878 2.4122-.5467 4.1576.841 1.7454 2.4494 2.7139 3.5924 2.1631z"/><path d="m26.4707 35.6858c.683-.1397 1.3815-.1397 2.0489 0 .7606.1552 1.8161.4502 2.8095.9158 1.8006.8537 3.3217-.8847 3.0889-2.7008s-1.1486-3.3062-2.468-4.5635c-.8227-.7761-1.754-1.2728-2.5612-1.5833-1.2107-.4656-2.5766-.4656-3.7874 0-.8071.3105-1.7384.8072-2.5611 1.5833-1.3194 1.2573-2.2197 2.7629-2.468 4.5635-.2328 1.8005 1.2728 3.5545 3.0889 2.7008.9934-.4812 2.0644-.7606 2.8095-.9158z"/><path d="m33.2903 20.4934c.4646-1.8809-.1572-3.6522-1.3889-3.9565-1.2317-.3042-2.6069.9739-3.0715 2.8547-.4646 1.8809.1573 3.6522 1.389 3.9565 1.2317.3042 2.6068-.9739 3.0714-2.8547z"/><path d="m37.9819 26.6602c.841-1.7454.5962-3.6068-.5468-4.1576-1.143-.5507-2.7514.4177-3.5925 2.1631-.841 1.7454-.5962 3.6069.5468 4.1576 1.143.5508 2.7514-.4177 3.5925-2.1631z"/></g><path clip-rule="evenodd" d="m27.5046 50.9861s-9.2727-5.5-13.0909-9.5-4.90906-5.2-4.90906-14v-15.5c4.90906-1 15.38186-4.40002 17.99996-10.00002 2.6182 5.6 13.0909 9.00002 18 10.00002v15.5c0 8.8-1.0909 10-4.9091 14-3.8181 4-13.0909 9.5-13.0909 9.5z" fill-rule="evenodd"/></g></g></svg>