<svg fill="none" height="55" viewBox="0 0 55 55" width="55" xmlns="http://www.w3.org/2000/svg" xmlns:xlink="http://www.w3.org/1999/xlink"><clipPath id="a"><path d="m0 0h55v55h-55z"/></clipPath><g clip-path="url(#a)"><path d="m10.1263 53.9675s5.3761 2.7616 20.2083-3.6727c14.8322-6.4342 18.2867-10.2148 18.2867-10.2148s4.6078-4.3844 1.884-12.9453c-2.9073-9.1373-6.8696-17.83477-10.9748-22.04301-4.1051-4.208243-8.7609-5.474621-12.1677-4.826508-4.1433.787708-7.2714 5.298218-9.7744 8.757098-2.5031 3.45882-10.91628 19.36282-10.91628 19.36282s-6.225887 10.8021-3.32691 18.7008c0 0 1.92185 5.3009 6.78109 6.8816z" fill="#e4beac"/><g stroke="#000" stroke-miterlimit="10"><path d="m54.2335 21.039c-2.345 0-3.8392-1.5979-5.6861-3.5279-1.9507-2.0337-4.9806-1.8469-4.9806-1.8469s-3.0298-.1868-4.9806 1.8469c-1.8469 1.93-3.3411 3.5279-5.6861 3.5279s-3.8392-1.5979-5.6862-3.5279c-1.9507-2.0337-4.9805-1.8469-4.9805-1.8469s-3.0299-.1868-4.9806 1.8469c-1.847 1.93-3.3412 3.5279-5.6862 3.5279-2.34499 0-3.79766-1.5771-5.64462-3.5279-1.95073-2.0337-4.980574-1.8469-4.980574-1.8469"/><path d="m54.233 38.2636c-2.345 0-3.8391-1.5979-5.6861-3.5279-1.9507-2.0337-4.9806-1.8469-4.9806-1.8469s-3.0298-.1868-4.9806 1.8469c-1.8469 1.93-3.3411 3.5279-5.6861 3.5279s-3.8392-1.5979-5.6862-3.5279c-1.9507-2.0337-4.9805-1.8469-4.9805-1.8469s-3.0299-.1868-4.9806 1.8469c-1.847 1.93-3.3411 3.5279-5.6862 3.5279-2.34498 0-3.83915-1.5979-5.68611-3.5279-1.95073-2.0337-4.980576-1.8469-4.980576-1.8469"/><path d="m54.2335 29.6513c-2.345 0-3.8392-1.5979-5.6861-3.5279-1.9507-2.0337-4.9806-1.8469-4.9806-1.8469s-3.0298-.1868-4.9806 1.8469c-1.8469 1.93-3.3411 3.5279-5.6861 3.5279s-3.8392-1.5979-5.6862-3.5279c-1.9507-2.0337-4.9805-1.8469-4.9805-1.8469s-3.0299-.1868-4.9806 1.8469c-1.847 1.93-3.3412 3.5279-5.6862 3.5279-2.34499 0-3.83916-1.5979-5.68613-3.5279-1.90922-2.0337-4.939064-1.8469-4.939064-1.8469"/></g></g></svg>